<svg width="821" height="260" viewBox="0 0 821 260" fill="none" xmlns="http://www.w3.org/2000/svg">
<rect width="821" height="260" fill="white"/>
<path d="M127.824 162H116.735L74.6816 98.0514L31.9988 162H21L68.8588 89.5486L25.2593 23H36.5636L74.8613 81.5372L113.986 23H124.589L80.5227 89.3552L127.824 162Z" fill="#209CE9"/>
<path d="M31.5129 85.3154H117.67V93.2213H31.5129V85.3154ZM31.5129 109.032H117.688V116.938H31.5129V109.032Z" fill="#209CE9"/>
<path d="M181 61.5V128.5" stroke="#20204C" stroke-opacity="0.33"/>
<path d="M349.764 162H338.808L246.689 38.8681H245.838C246.689 53.8331 247.114 65.1214 247.114 72.7331V162H236.69V23H247.539L339.553 148.397H340.191C339.553 136.786 339.234 125.755 339.234 115.306V23H349.764V162Z" fill="#20204C"/>
<path d="M468.8 115.112H405.614L383.914 162H371.894L434.441 23H441.355L502.627 162H490.394L468.8 115.112ZM409.55 106.211H465.183L444.015 55.22C442.242 51.2207 440.114 45.6733 437.632 38.5778C435.717 44.7703 433.626 50.3822 431.356 55.4135L409.55 106.211Z" fill="#20204C"/>
<path d="M637.826 162H625.499L534.748 38.8681H533.899C534.748 53.8331 535.175 65.1214 535.175 72.7331V162H524.749V23H535.597L627.61 148.397H628.248C627.61 136.786 627.291 125.755 627.291 115.306V23H637.826V162Z" fill="#20204C"/>
<path d="M799.456 89.1421C799.456 111.59 793.286 129.361 780.949 142.455C768.608 155.485 751.589 162 729.887 162C708.258 162 691.273 155.485 678.937 142.455C666.596 129.361 660.425 111.525 660.425 88.9487C660.425 66.4364 666.63 55.349 679.04 42.4481C691.523 29.4827 713.452 23 735.012 23C756.709 23 768.785 29.515 781.053 42.5448C793.32 55.5103 799.456 66.6299 799.456 89.1421ZM672.231 89.1421C672.231 109.396 677.199 125.071 687.125 136.166C697.056 147.196 711.306 152.711 729.887 152.711C748.609 152.711 762.899 147.229 772.756 136.262C782.687 125.297 787.65 109.59 787.65 89.1421C787.65 68.7586 782.687 59.7675 772.756 48.9308C762.899 38.0296 748.683 32.5789 730.103 32.5789C711.591 32.5789 697.301 38.0618 687.233 49.0275C677.234 59.9933 672.231 68.9521 672.231 89.1421Z" fill="#20204C"/>
<path d="M176.7 245.48C174.22 245.48 171.9 244.96 169.74 243.92C167.58 242.88 165.82 241.38 164.46 239.42L167.94 235.34C169.1 236.94 170.4 238.18 171.84 239.06C173.32 239.9 174.94 240.32 176.7 240.32C181.5 240.32 183.9 237.48 183.9 231.8V208.22H168.72V203H189.84V231.5C189.84 236.18 188.72 239.68 186.48 242C184.28 244.32 181.02 245.48 176.7 245.48ZM214.302 245.48C211.102 245.48 208.042 245 205.122 244.04C202.202 243.04 199.902 241.76 198.222 240.2L200.442 235.52C202.042 236.92 204.082 238.08 206.562 239C209.042 239.92 211.622 240.38 214.302 240.38C216.742 240.38 218.722 240.1 220.242 239.54C221.762 238.98 222.882 238.22 223.602 237.26C224.322 236.26 224.682 235.14 224.682 233.9C224.682 232.46 224.202 231.3 223.242 230.42C222.322 229.54 221.102 228.84 219.582 228.32C218.102 227.76 216.462 227.28 214.662 226.88C212.862 226.48 211.042 226.02 209.202 225.5C207.402 224.94 205.742 224.24 204.222 223.4C202.742 222.56 201.542 221.44 200.622 220.04C199.702 218.6 199.242 216.76 199.242 214.52C199.242 212.36 199.802 210.38 200.922 208.58C202.082 206.74 203.842 205.28 206.202 204.2C208.602 203.08 211.642 202.52 215.322 202.52C217.762 202.52 220.182 202.84 222.582 203.48C224.982 204.12 227.062 205.04 228.822 206.24L226.842 211.04C225.042 209.84 223.142 208.98 221.142 208.46C219.142 207.9 217.202 207.62 215.322 207.62C212.962 207.62 211.022 207.92 209.502 208.52C207.982 209.12 206.862 209.92 206.142 210.92C205.462 211.92 205.122 213.04 205.122 214.28C205.122 215.76 205.582 216.94 206.502 217.82C207.462 218.7 208.682 219.4 210.162 219.92C211.682 220.44 213.342 220.92 215.142 221.36C216.942 221.76 218.742 222.22 220.542 222.74C222.382 223.26 224.042 223.94 225.522 224.78C227.042 225.62 228.262 226.74 229.182 228.14C230.102 229.54 230.562 231.34 230.562 233.54C230.562 235.66 229.982 237.64 228.822 239.48C227.662 241.28 225.862 242.74 223.422 243.86C221.022 244.94 217.982 245.48 214.302 245.48ZM231.347 251L251.147 194.48H256.367L236.567 251H231.347ZM270.578 245V208.22H256.178V203H290.918V208.22H276.518V245H270.578ZM309.165 245.48C305.965 245.48 302.905 245 299.985 244.04C297.065 243.04 294.765 241.76 293.085 240.2L295.305 235.52C296.905 236.92 298.945 238.08 301.425 239C303.905 239.92 306.485 240.38 309.165 240.38C311.605 240.38 313.585 240.1 315.105 239.54C316.625 238.98 317.745 238.22 318.465 237.26C319.185 236.26 319.545 235.14 319.545 233.9C319.545 232.46 319.065 231.3 318.105 230.42C317.185 229.54 315.965 228.84 314.445 228.32C312.965 227.76 311.325 227.28 309.525 226.88C307.725 226.48 305.905 226.02 304.065 225.5C302.265 224.94 300.605 224.24 299.085 223.4C297.605 222.56 296.405 221.44 295.485 220.04C294.565 218.6 294.105 216.76 294.105 214.52C294.105 212.36 294.665 210.38 295.785 208.58C296.945 206.74 298.705 205.28 301.065 204.2C303.465 203.08 306.505 202.52 310.185 202.52C312.625 202.52 315.045 202.84 317.445 203.48C319.845 204.12 321.925 205.04 323.685 206.24L321.705 211.04C319.905 209.84 318.005 208.98 316.005 208.46C314.005 207.9 312.065 207.62 310.185 207.62C307.825 207.62 305.885 207.92 304.365 208.52C302.845 209.12 301.725 209.92 301.005 210.92C300.325 211.92 299.985 213.04 299.985 214.28C299.985 215.76 300.445 216.94 301.365 217.82C302.325 218.7 303.545 219.4 305.025 219.92C306.545 220.44 308.205 220.92 310.005 221.36C311.805 221.76 313.605 222.22 315.405 222.74C317.245 223.26 318.905 223.94 320.385 224.78C321.905 225.62 323.125 226.74 324.045 228.14C324.965 229.54 325.425 231.34 325.425 233.54C325.425 235.66 324.845 237.64 323.685 239.48C322.525 241.28 320.725 242.74 318.285 243.86C315.885 244.94 312.845 245.48 309.165 245.48Z" fill="#209CE9"/>
<path d="M350.434 245V203H366.154C369.714 203 372.774 203.58 375.334 204.74C377.894 205.86 379.854 207.5 381.214 209.66C382.614 211.78 383.314 214.36 383.314 217.4C383.314 220.36 382.614 222.92 381.214 225.08C379.854 227.2 377.894 228.84 375.334 230C372.774 231.12 369.714 231.68 366.154 231.68H352.894L354.874 229.64V245H350.434ZM379.114 245L368.314 229.76H373.114L383.974 245H379.114ZM354.874 230L352.894 227.9H366.034C370.234 227.9 373.414 226.98 375.574 225.14C377.774 223.3 378.874 220.72 378.874 217.4C378.874 214.04 377.774 211.44 375.574 209.6C373.414 207.76 370.234 206.84 366.034 206.84H352.894L354.874 204.74V230ZM393.793 245V203H409.513C413.073 203 416.133 203.58 418.693 204.74C421.253 205.86 423.213 207.5 424.573 209.66C425.973 211.78 426.673 214.36 426.673 217.4C426.673 220.36 425.973 222.92 424.573 225.08C423.213 227.2 421.253 228.84 418.693 230C416.133 231.16 413.073 231.74 409.513 231.74H396.253L398.233 229.64V245H393.793ZM398.233 230L396.253 227.84H409.393C413.593 227.84 416.773 226.94 418.933 225.14C421.133 223.3 422.233 220.72 422.233 217.4C422.233 214.04 421.133 211.44 418.933 209.6C416.773 207.76 413.593 206.84 409.393 206.84H396.253L398.233 204.74V230ZM455.1 245.36C451.94 245.36 449.02 244.84 446.34 243.8C443.66 242.72 441.34 241.22 439.38 239.3C437.42 237.38 435.88 235.12 434.76 232.52C433.68 229.92 433.14 227.08 433.14 224C433.14 220.92 433.68 218.08 434.76 215.48C435.88 212.88 437.42 210.62 439.38 208.7C441.38 206.78 443.72 205.3 446.4 204.26C449.08 203.18 452 202.64 455.16 202.64C458.2 202.64 461.06 203.16 463.74 204.2C466.42 205.2 468.68 206.72 470.52 208.76L467.7 211.58C465.98 209.82 464.08 208.56 462 207.8C459.92 207 457.68 206.6 455.28 206.6C452.76 206.6 450.42 207.04 448.26 207.92C446.1 208.76 444.22 209.98 442.62 211.58C441.02 213.14 439.76 214.98 438.84 217.1C437.96 219.18 437.52 221.48 437.52 224C437.52 226.52 437.96 228.84 438.84 230.96C439.76 233.04 441.02 234.88 442.62 236.48C444.22 238.04 446.1 239.26 448.26 240.14C450.42 240.98 452.76 241.4 455.28 241.4C457.68 241.4 459.92 241 462 240.2C464.08 239.4 465.98 238.12 467.7 236.36L470.52 239.18C468.68 241.22 466.42 242.76 463.74 243.8C461.06 244.84 458.18 245.36 455.1 245.36ZM507.868 245.3C504.748 245.3 501.948 244.62 499.468 243.26C497.028 241.86 495.108 239.96 493.708 237.56C492.308 235.12 491.608 232.34 491.608 229.22C491.608 226.06 492.308 223.28 493.708 220.88C495.108 218.48 497.028 216.6 499.468 215.24C501.948 213.88 504.748 213.2 507.868 213.2C510.548 213.2 512.968 213.72 515.128 214.76C517.288 215.8 518.988 217.36 520.228 219.44L517.048 221.6C515.968 220 514.628 218.82 513.028 218.06C511.428 217.3 509.688 216.92 507.808 216.92C505.568 216.92 503.548 217.44 501.748 218.48C499.948 219.48 498.528 220.9 497.488 222.74C496.448 224.58 495.928 226.74 495.928 229.22C495.928 231.7 496.448 233.86 497.488 235.7C498.528 237.54 499.948 238.98 501.748 240.02C503.548 241.02 505.568 241.52 507.808 241.52C509.688 241.52 511.428 241.14 513.028 240.38C514.628 239.62 515.968 238.46 517.048 236.9L520.228 239.06C518.988 241.1 517.288 242.66 515.128 243.74C512.968 244.78 510.548 245.3 507.868 245.3ZM528.128 245V200.48H532.388V245H528.128ZM544.241 245V213.5H548.501V245H544.241ZM546.401 206.54C545.521 206.54 544.781 206.24 544.181 205.64C543.581 205.04 543.281 204.32 543.281 203.48C543.281 202.64 543.581 201.94 544.181 201.38C544.781 200.78 545.521 200.48 546.401 200.48C547.281 200.48 548.021 200.76 548.621 201.32C549.221 201.88 549.521 202.58 549.521 203.42C549.521 204.3 549.221 205.04 548.621 205.64C548.061 206.24 547.321 206.54 546.401 206.54ZM573.734 245.3C570.454 245.3 567.574 244.62 565.094 243.26C562.614 241.86 560.674 239.96 559.274 237.56C557.874 235.12 557.174 232.34 557.174 229.22C557.174 226.1 557.834 223.34 559.154 220.94C560.514 218.54 562.354 216.66 564.674 215.3C567.034 213.9 569.674 213.2 572.594 213.2C575.554 213.2 578.174 213.88 580.454 215.24C582.774 216.56 584.594 218.44 585.914 220.88C587.234 223.28 587.894 226.06 587.894 229.22C587.894 229.42 587.874 229.64 587.834 229.88C587.834 230.08 587.834 230.3 587.834 230.54H560.414V227.36H585.554L583.874 228.62C583.874 226.34 583.374 224.32 582.374 222.56C581.414 220.76 580.094 219.36 578.414 218.36C576.734 217.36 574.794 216.86 572.594 216.86C570.434 216.86 568.494 217.36 566.774 218.36C565.054 219.36 563.714 220.76 562.754 222.56C561.794 224.36 561.314 226.42 561.314 228.74V229.4C561.314 231.8 561.834 233.92 562.874 235.76C563.954 237.56 565.434 238.98 567.314 240.02C569.234 241.02 571.414 241.52 573.854 241.52C575.774 241.52 577.554 241.18 579.194 240.5C580.874 239.82 582.314 238.78 583.514 237.38L585.914 240.14C584.514 241.82 582.754 243.1 580.634 243.98C578.554 244.86 576.254 245.3 573.734 245.3ZM612.645 213.2C615.205 213.2 617.445 213.7 619.365 214.7C621.325 215.66 622.845 217.14 623.925 219.14C625.045 221.14 625.605 223.66 625.605 226.7V245H621.345V227.12C621.345 223.8 620.505 221.3 618.825 219.62C617.185 217.9 614.865 217.04 611.865 217.04C609.625 217.04 607.665 217.5 605.985 218.42C604.345 219.3 603.065 220.6 602.145 222.32C601.265 224 600.825 226.04 600.825 228.44V245H596.565V213.5H600.645V222.14L599.985 220.52C600.985 218.24 602.585 216.46 604.785 215.18C606.985 213.86 609.605 213.2 612.645 213.2ZM647.072 245.3C644.112 245.3 641.832 244.5 640.232 242.9C638.632 241.3 637.832 239.04 637.832 236.12V206.54H642.092V235.88C642.092 237.72 642.552 239.14 643.472 240.14C644.432 241.14 645.792 241.64 647.552 241.64C649.432 241.64 650.992 241.1 652.232 240.02L653.732 243.08C652.892 243.84 651.872 244.4 650.672 244.76C649.512 245.12 648.312 245.3 647.072 245.3ZM632.192 217.04V213.5H651.692V217.04H632.192Z" fill="#20204C"/>
</svg>
