<svg width="821" height="263" viewBox="0 0 821 263" fill="none" xmlns="http://www.w3.org/2000/svg">
<rect width="821" height="260" fill="white"/>
<path d="M127.824 162H116.735L74.6816 98.0514L31.9988 162H21L68.8588 89.5486L25.2593 23H36.5636L74.8613 81.5372L113.986 23H124.589L80.5227 89.3552L127.824 162Z" fill="#209CE9"/>
<path d="M31.5129 85.3154H117.67V93.2213H31.5129V85.3154ZM31.5129 109.032H117.688V116.938H31.5129V109.032Z" fill="#209CE9"/>
<path d="M181 61.5V128.5" stroke="#20204C" stroke-opacity="0.33"/>
<path d="M349.764 162H338.808L246.689 38.8681H245.838C246.689 53.8331 247.114 65.1214 247.114 72.7331V162H236.69V23H247.539L339.553 148.397H340.191C339.553 136.786 339.234 125.755 339.234 115.306V23H349.764V162Z" fill="#20204C"/>
<path d="M468.8 115.112H405.614L383.914 162H371.894L434.441 23H441.355L502.627 162H490.394L468.8 115.112ZM409.55 106.211H465.183L444.015 55.22C442.242 51.2207 440.114 45.6733 437.632 38.5778C435.717 44.7703 433.626 50.3822 431.356 55.4135L409.55 106.211Z" fill="#20204C"/>
<path d="M637.826 162H625.499L534.748 38.8681H533.899C534.748 53.8331 535.175 65.1214 535.175 72.7331V162H524.749V23H535.597L627.61 148.397H628.248C627.61 136.786 627.291 125.755 627.291 115.306V23H637.826V162Z" fill="#20204C"/>
<path d="M799.456 89.1421C799.456 111.59 793.286 129.361 780.949 142.455C768.608 155.485 751.589 162 729.887 162C708.258 162 691.273 155.485 678.937 142.455C666.596 129.361 660.425 111.525 660.425 88.9487C660.425 66.4364 666.63 55.349 679.04 42.4481C691.523 29.4827 713.452 23 735.012 23C756.709 23 768.785 29.515 781.053 42.5448C793.32 55.5103 799.456 66.6299 799.456 89.1421ZM672.231 89.1421C672.231 109.396 677.199 125.071 687.125 136.166C697.056 147.196 711.306 152.711 729.887 152.711C748.609 152.711 762.899 147.229 772.756 136.262C782.687 125.297 787.65 109.59 787.65 89.1421C787.65 68.7586 782.687 59.7675 772.756 48.9308C762.899 38.0296 748.683 32.5789 730.103 32.5789C711.591 32.5789 697.301 38.0618 687.233 49.0275C677.234 59.9933 672.231 68.9521 672.231 89.1421Z" fill="#20204C"/>
<path d="M260.84 248V206H276.56C280.12 206 283.18 206.58 285.74 207.74C288.3 208.86 290.26 210.5 291.62 212.66C293.02 214.78 293.72 217.36 293.72 220.4C293.72 223.36 293.02 225.92 291.62 228.08C290.26 230.2 288.3 231.84 285.74 233C283.18 234.12 280.12 234.68 276.56 234.68H263.3L265.28 232.64V248H260.84ZM289.52 248L278.72 232.76H283.52L294.38 248H289.52ZM265.28 233L263.3 230.9H276.44C280.64 230.9 283.82 229.98 285.98 228.14C288.18 226.3 289.28 223.72 289.28 220.4C289.28 217.04 288.18 214.44 285.98 212.6C283.82 210.76 280.64 209.84 276.44 209.84H263.3L265.28 207.74V233ZM304.199 248V206H319.919C323.479 206 326.539 206.58 329.099 207.74C331.659 208.86 333.619 210.5 334.979 212.66C336.379 214.78 337.079 217.36 337.079 220.4C337.079 223.36 336.379 225.92 334.979 228.08C333.619 230.2 331.659 231.84 329.099 233C326.539 234.16 323.479 234.74 319.919 234.74H306.659L308.639 232.64V248H304.199ZM308.639 233L306.659 230.84H319.799C323.999 230.84 327.179 229.94 329.339 228.14C331.539 226.3 332.639 223.72 332.639 220.4C332.639 217.04 331.539 214.44 329.339 212.6C327.179 210.76 323.999 209.84 319.799 209.84H306.659L308.639 207.74V233ZM365.506 248.36C362.346 248.36 359.426 247.84 356.746 246.8C354.066 245.72 351.746 244.22 349.786 242.3C347.826 240.38 346.286 238.12 345.166 235.52C344.086 232.92 343.546 230.08 343.546 227C343.546 223.92 344.086 221.08 345.166 218.48C346.286 215.88 347.826 213.62 349.786 211.7C351.786 209.78 354.126 208.3 356.806 207.26C359.486 206.18 362.406 205.64 365.566 205.64C368.606 205.64 371.466 206.16 374.146 207.2C376.826 208.2 379.086 209.72 380.926 211.76L378.106 214.58C376.386 212.82 374.486 211.56 372.406 210.8C370.326 210 368.086 209.6 365.686 209.6C363.166 209.6 360.826 210.04 358.666 210.92C356.506 211.76 354.626 212.98 353.026 214.58C351.426 216.14 350.166 217.98 349.246 220.1C348.366 222.18 347.926 224.48 347.926 227C347.926 229.52 348.366 231.84 349.246 233.96C350.166 236.04 351.426 237.88 353.026 239.48C354.626 241.04 356.506 242.26 358.666 243.14C360.826 243.98 363.166 244.4 365.686 244.4C368.086 244.4 370.326 244 372.406 243.2C374.486 242.4 376.386 241.12 378.106 239.36L380.926 242.18C379.086 244.22 376.826 245.76 374.146 246.8C371.466 247.84 368.586 248.36 365.506 248.36ZM418.274 248.3C415.154 248.3 412.354 247.62 409.874 246.26C407.434 244.86 405.514 242.96 404.114 240.56C402.714 238.12 402.014 235.34 402.014 232.22C402.014 229.06 402.714 226.28 404.114 223.88C405.514 221.48 407.434 219.6 409.874 218.24C412.354 216.88 415.154 216.2 418.274 216.2C420.954 216.2 423.374 216.72 425.534 217.76C427.694 218.8 429.394 220.36 430.634 222.44L427.454 224.6C426.374 223 425.034 221.82 423.434 221.06C421.834 220.3 420.094 219.92 418.214 219.92C415.974 219.92 413.954 220.44 412.154 221.48C410.354 222.48 408.934 223.9 407.894 225.74C406.854 227.58 406.334 229.74 406.334 232.22C406.334 234.7 406.854 236.86 407.894 238.7C408.934 240.54 410.354 241.98 412.154 243.02C413.954 244.02 415.974 244.52 418.214 244.52C420.094 244.52 421.834 244.14 423.434 243.38C425.034 242.62 426.374 241.46 427.454 239.9L430.634 242.06C429.394 244.1 427.694 245.66 425.534 246.74C423.374 247.78 420.954 248.3 418.274 248.3ZM438.534 248V203.48H442.794V248H438.534ZM454.647 248V216.5H458.907V248H454.647ZM456.807 209.54C455.927 209.54 455.187 209.24 454.587 208.64C453.987 208.04 453.687 207.32 453.687 206.48C453.687 205.64 453.987 204.94 454.587 204.38C455.187 203.78 455.927 203.48 456.807 203.48C457.687 203.48 458.427 203.76 459.027 204.32C459.627 204.88 459.927 205.58 459.927 206.42C459.927 207.3 459.627 208.04 459.027 208.64C458.467 209.24 457.727 209.54 456.807 209.54ZM484.14 248.3C480.86 248.3 477.98 247.62 475.5 246.26C473.02 244.86 471.08 242.96 469.68 240.56C468.28 238.12 467.58 235.34 467.58 232.22C467.58 229.1 468.24 226.34 469.56 223.94C470.92 221.54 472.76 219.66 475.08 218.3C477.44 216.9 480.08 216.2 483 216.2C485.96 216.2 488.58 216.88 490.86 218.24C493.18 219.56 495 221.44 496.32 223.88C497.64 226.28 498.3 229.06 498.3 232.22C498.3 232.42 498.28 232.64 498.24 232.88C498.24 233.08 498.24 233.3 498.24 233.54H470.82V230.36H495.96L494.28 231.62C494.28 229.34 493.78 227.32 492.78 225.56C491.82 223.76 490.5 222.36 488.82 221.36C487.14 220.36 485.2 219.86 483 219.86C480.84 219.86 478.9 220.36 477.18 221.36C475.46 222.36 474.12 223.76 473.16 225.56C472.2 227.36 471.72 229.42 471.72 231.74V232.4C471.72 234.8 472.24 236.92 473.28 238.76C474.36 240.56 475.84 241.98 477.72 243.02C479.64 244.02 481.82 244.52 484.26 244.52C486.18 244.52 487.96 244.18 489.6 243.5C491.28 242.82 492.72 241.78 493.92 240.38L496.32 243.14C494.92 244.82 493.16 246.1 491.04 246.98C488.96 247.86 486.66 248.3 484.14 248.3ZM523.051 216.2C525.611 216.2 527.851 216.7 529.771 217.7C531.731 218.66 533.251 220.14 534.331 222.14C535.451 224.14 536.011 226.66 536.011 229.7V248H531.751V230.12C531.751 226.8 530.911 224.3 529.231 222.62C527.591 220.9 525.271 220.04 522.271 220.04C520.031 220.04 518.071 220.5 516.391 221.42C514.751 222.3 513.471 223.6 512.551 225.32C511.671 227 511.231 229.04 511.231 231.44V248H506.971V216.5H511.051V225.14L510.391 223.52C511.391 221.24 512.991 219.46 515.191 218.18C517.391 216.86 520.011 216.2 523.051 216.2ZM557.478 248.3C554.518 248.3 552.238 247.5 550.638 245.9C549.038 244.3 548.238 242.04 548.238 239.12V209.54H552.498V238.88C552.498 240.72 552.958 242.14 553.878 243.14C554.838 244.14 556.198 244.64 557.958 244.64C559.838 244.64 561.398 244.1 562.638 243.02L564.138 246.08C563.298 246.84 562.278 247.4 561.078 247.76C559.918 248.12 558.718 248.3 557.478 248.3ZM542.598 220.04V216.5H562.098V220.04H542.598Z" fill="#20204C"/>
</svg>
